HIERARCHY
ROOT Hips
{
    OFFSET 0.000000 0.000000 0.000000
    CHANNELS 6 Xposition Yposition Zposition Zrotation Xrotation Yrotation
    JOINT Spine
    {
        OFFSET -0.000000 7.246840 0.000000
        CHANNELS 3 Zrotation Xrotation Yrotation
        JOINT Spine1
        {
            OFFSET -0.000000 20.289354 0.000000
            CHANNELS 3 Zrotation Xrotation Yrotation
            JOINT Neck
            {
                OFFSET -0.000000 20.206032 1.836912
                CHANNELS 3 Zrotation Xrotation Yrotation
                JOINT Head
                {
                    OFFSET -0.000000 12.372654 -1.767522
                    CHANNELS 3 Zrotation Xrotation Yrotation
                    End Site
                    {
                        OFFSET -0.000000 22.094025 0.000000
                    }
                }
            }
            JOINT LeftShoulder
            {
                OFFSET 3.465871 17.201674 -0.568930
                CHANNELS 3 Zrotation Xrotation Yrotation
                JOINT LeftArm
                {
                    OFFSET 14.070313 0.000000 0.000000
                    CHANNELS 3 Zrotation Xrotation Yrotation
                    JOINT LeftForeArm
                    {
                        OFFSET 26.549477 0.000000 0.000000
                        CHANNELS 3 Zrotation Xrotation Yrotation
                        JOINT LeftHand
                        {
                            OFFSET 18.880413 0.000000 0.000000
                            CHANNELS 3 Zrotation Xrotation Yrotation
                            End Site
                            {
                                OFFSET 13.256415 0.000000 0.000000
                            }
                        }
                    }
                }
            }
            JOINT RightShoulder
            {
                OFFSET -3.526370 17.201674 -0.568930
                CHANNELS 3 Zrotation Xrotation Yrotation
                JOINT RightArm
                {
                    OFFSET -14.070313 0.000000 0.000000
                    CHANNELS 3 Zrotation Xrotation Yrotation
                    JOINT RightForeArm
                    {
                        OFFSET -26.549477 0.000000 0.000000
                        CHANNELS 3 Zrotation Xrotation Yrotation
                        JOINT RightHand
                        {
                            OFFSET -18.880413 0.000000 0.000000
                            CHANNELS 3 Zrotation Xrotation Yrotation
                            End Site
                            {
                                OFFSET -13.256415 0.000000 0.000000
                            }
                        }
                    }
                }
            }
        }
    }
    JOINT LeftUpLeg
    {
        OFFSET 8.837609 0.000000 0.000000
        CHANNELS 3 Zrotation Xrotation Yrotation
        JOINT LeftLeg
        {
            OFFSET -0.000000 -41.345005 0.000000
            CHANNELS 3 Zrotation Xrotation Yrotation
            JOINT LeftFoot
            {
                OFFSET -0.000000 -35.500874 0.000000
                CHANNELS 3 Zrotation Xrotation Yrotation
                JOINT LeftToeBase
                {
                    OFFSET -0.000000 -5.744446 13.256415
                    CHANNELS 3 Zrotation Xrotation Yrotation
                    End Site
                    {
                        OFFSET -0.000000 0.000000 3.535044
                    }
                }
            }
        }
    }
    JOINT RightUpLeg
    {
        OFFSET -8.837609 0.000000 0.000000
        CHANNELS 3 Zrotation Xrotation Yrotation
        JOINT RightLeg
        {
            OFFSET -0.000000 -41.345005 0.000000
            CHANNELS 3 Zrotation Xrotation Yrotation
            JOINT RightFoot
            {
                OFFSET -0.000000 -35.500874 0.000000
                CHANNELS 3 Zrotation Xrotation Yrotation
                JOINT RightToeBase
                {
                    OFFSET -0.000000 -5.744446 13.256415
                    CHANNELS 3 Zrotation Xrotation Yrotation
                    End Site
                    {
                        OFFSET -0.000000 0.000000 3.535044
                    }
                }
            }
        }
    }
}
MOTION
Frames:    4
Frame Time:    0.010000
-7.943583    84.708855    3.288073    10.145781    -11.879300    -45.146450    -10.548417    -9.547132    1.086361    2.876105    10.760601    1.698864    -6.977517    30.701036    21.754667    -13.137727    -23.216719    17.259327    6.871872    11.904043    15.748710    -82.523346    30.881624    6.269807    -9.372433    -20.372612    -117.535774    -88.690178    -21.838245    -14.194263    -9.929923    5.133612    7.424850    47.801254    50.749504    16.962975    -6.160288    -24.340889    115.917786    27.691973    -9.874907    21.262781    -2.369871    -15.999388    8.375480    -13.797762    59.614986    20.263481    0.176135    4.350054    3.145451    -1.743437    -5.583388    2.528054    -14.293221    -3.263303    -7.079541    1.843901    15.291368    3.101292    2.000335    -8.337046    -2.135109    -3.670901    -0.650534    6.624645    
-7.804230    84.553696    3.234240    10.402397    -11.400112    -44.376972    -10.572939    -9.820080    1.117682    2.562352    10.988814    1.782120    -6.361482    30.185122    21.129210    -13.019401    -23.595100    16.723934    6.768550    11.563209    15.658221    -82.829117    31.091631    6.528915    -9.867840    -20.046726    -117.280632    -88.317947    -21.666267    -14.878024    -10.026299    5.296928    7.000474    49.414600    51.211109    15.895689    -6.464447    -24.768518    115.498604    27.470243    -9.998399    21.192219    -2.376364    -15.438936    7.865546    -13.300016    59.066914    19.724449    0.162458    4.349110    3.234042    -1.476302    -6.097466    2.148139    -14.156046    -3.625360    -7.353889    1.851507    15.387970    3.010912    1.989254    -8.810935    -2.530682    -3.630406    -0.493003    6.540449    
-7.654830    84.408096    3.164823    10.592633    -10.970836    -43.762894    -10.416873    -9.745385    1.305439    1.869699    10.682900    2.021164    -5.527658    29.851973    20.508965    -12.791170    -23.877972    16.254562    6.950457    11.693725    15.633752    -83.039764    31.654490    6.511316    -10.054870    -19.983564    -116.958572    -87.517609    -21.389683    -15.528230    -9.935651    5.608958    6.723692    51.523224    51.144913    14.303866    -6.489505    -24.531050    115.259605    27.174242    -9.841925    21.048489    -2.246270    -14.802505    7.715819    -12.792656    58.315578    19.564960    0.493688    4.179433    2.745716    -1.456195    -6.406571    2.123317    -14.002849    -3.951251    -7.433241    1.850961    15.447420    2.922169    1.917245    -9.458391    -3.024566    -3.586388    0.017251    6.425712    
-7.460608    84.297600    3.090457    10.849291    -10.551156    -42.928619    -10.365513    -9.724644    1.375491    1.212927    10.474935    2.148576    -4.655734    29.628351    19.885744    -12.662148    -24.279182    15.730455    7.173955    11.860579    15.645066    -83.361450    32.156708    6.323019    -10.188630    -19.928158    -116.505913    -86.580933    -21.136587    -16.075266    -9.807559    5.886254    6.656953    53.712650    51.229618    12.599241    -6.794816    -24.910204    114.777023    27.336235    -9.811773    21.163050    -2.218017    -14.314149    7.440368    -12.281916    57.483330    19.015932    0.310202    3.998106    2.635311    -1.473965    -6.732792    2.154002    -13.955201    -4.223516    -7.809434    1.843754    15.441092    3.194183    1.817589    -9.857700    -3.699738    -3.471335    0.054025    6.217397    
